<svg width="241" height="241" viewBox="0 0 241 241" fill="none" xmlns="http://www.w3.org/2000/svg">
<path d="M75.489 214.997C42.5913 199.61 19.0499 167.837 15.4281 130.269H0.337402C5.46824 191.817 57.2796 240.176 120.56 240.176L127.2 239.877L88.8695 201.809L75.489 214.997ZM84.4429 149.852C82.5314 149.852 80.7205 149.552 79.2114 149.053C77.6017 148.453 76.2939 147.754 75.1872 146.655C74.0806 145.656 73.1751 144.457 72.5715 142.958C71.9679 141.559 71.6661 139.961 71.6661 138.262H58.5875C58.5875 141.859 59.2917 145.056 60.7002 147.754C62.1086 150.452 64.0201 152.75 66.334 154.648C68.7485 156.447 71.4649 157.846 74.5836 158.745C77.6017 159.744 80.8211 160.243 84.2416 160.243C87.964 160.243 91.4852 159.744 94.6039 158.745C97.8233 157.746 100.64 156.247 102.954 154.348C105.268 152.45 107.179 150.052 108.487 147.154C109.795 144.257 110.499 141.06 110.499 137.463C110.499 135.564 110.298 133.666 109.795 131.867C109.292 130.069 108.588 128.37 107.481 126.772C106.475 125.173 105.067 123.774 103.457 122.475C101.747 121.176 99.7347 120.177 97.3202 119.378C99.3323 118.479 101.043 117.38 102.552 116.081C104.061 114.782 105.268 113.383 106.274 111.884C107.28 110.385 107.984 108.887 108.487 107.288C108.99 105.689 109.192 104.091 109.192 102.492C109.192 98.8951 108.588 95.6978 107.381 92.9001C106.173 90.1025 104.463 87.8044 102.25 86.0059C100.238 84.1075 97.5215 82.7087 94.5033 81.7095C91.3846 80.8103 87.964 80.3107 84.2416 80.3107C80.6199 80.3107 77.2999 80.8103 74.1812 81.9094C71.163 83.0084 68.4467 84.5072 66.2334 86.4056C64.1207 88.304 62.4104 90.5021 61.1026 93.0999C59.8953 95.6978 59.2917 98.4954 59.2917 101.593H72.3703C72.3703 99.8942 72.6721 98.3955 73.2757 97.0966C73.8794 95.7977 74.6842 94.5987 75.7909 93.6994C76.8975 92.8002 78.1048 92.0009 79.6138 91.5013C81.1229 91.0017 82.632 90.702 84.4429 90.702C88.467 90.702 91.4852 91.7011 93.3967 93.7994C95.3082 95.7977 96.3142 98.6952 96.3142 102.392C96.3142 104.191 96.0124 105.789 95.5094 107.288C95.0063 108.787 94.1009 109.986 92.9942 110.985C91.8876 111.984 90.4791 112.783 88.8695 113.383C87.2598 113.982 85.2477 114.282 83.0344 114.282H75.2878V124.573H83.0344C85.2477 124.573 87.2598 124.773 89.0707 125.273C90.8815 125.772 92.3906 126.572 93.5979 127.571C94.8051 128.67 95.8112 129.969 96.5154 131.568C97.2196 133.166 97.5215 135.065 97.5215 137.263C97.5215 141.359 96.3142 144.457 94.0003 146.555C91.6864 148.853 88.467 149.852 84.4429 149.852ZM170.46 90.702C167.24 87.4047 163.417 84.8069 158.991 83.0084C154.665 81.21 149.735 80.3107 144.303 80.3107H120.56V160.243H143.699C149.232 160.243 154.363 159.344 158.89 157.546C163.417 155.747 167.341 153.249 170.56 149.952C173.78 146.655 176.295 142.658 178.005 138.062C179.715 133.366 180.621 128.17 180.621 122.375V118.379C180.621 112.584 179.715 107.388 178.005 102.692C176.194 97.9958 173.679 93.9992 170.46 90.702ZM166.536 122.275C166.536 126.472 166.033 130.169 165.128 133.566C164.122 136.863 162.713 139.761 160.802 142.059C158.89 144.357 156.476 146.155 153.659 147.354C150.741 148.553 147.421 149.153 143.699 149.153H134.544V91.5013H144.303C151.546 91.5013 157.079 93.7994 160.802 98.3955C164.625 102.992 166.536 109.586 166.536 118.279V122.275ZM120.56 0.37793L113.92 0.677678L152.25 38.7457L165.631 25.4568C198.528 40.9438 222.07 72.6172 225.591 110.186H240.682C235.652 48.7373 183.84 0.37793 120.56 0.37793Z" fill="#FFAD54"/>
</svg>
