<svg width="310" height="217" viewBox="0 0 310 217" fill="none" xmlns="http://www.w3.org/2000/svg">
<path fill-rule="evenodd" clip-rule="evenodd" d="M27.29 135.387C42.1931 135.387 54.3866 123.193 54.3866 108.29C54.3866 93.3868 42.1931 81.1934 27.29 81.1934C12.3868 81.1934 0.193359 93.3868 0.193359 108.29C0.193359 123.193 12.3868 135.387 27.29 135.387Z" fill="#FFAD54"/>
<path fill-rule="evenodd" clip-rule="evenodd" d="M112.097 135.193C127 135.193 139.193 123 139.193 108.097C139.193 93.1935 127 81 112.097 81C97.1935 81 85 93.1935 85 108.097C85 123 97.1935 135.193 112.097 135.193Z" fill="#FFAD54"/>
<path fill-rule="evenodd" clip-rule="evenodd" d="M197.097 135.193C212 135.193 224.193 123 224.193 108.097C224.193 93.1935 212 81 197.097 81C182.193 81 170 93.1935 170 108.097C170 123 182.193 135.193 197.097 135.193Z" fill="#FFAD54"/>
<path fill-rule="evenodd" clip-rule="evenodd" d="M282.097 135.193C297 135.193 309.193 123 309.193 108.097C309.193 93.1935 297 81 282.097 81C267.193 81 255 93.1935 255 108.097C255 123 267.193 135.193 282.097 135.193Z" fill="#FFAD54"/>
<path fill-rule="evenodd" clip-rule="evenodd" d="M27.0966 216.193C41.9998 216.193 54.1933 204 54.1933 189.097C54.1933 174.193 41.9998 162 27.0966 162C12.1935 162 0 174.193 0 189.097C0 204 12.1935 216.193 27.0966 216.193Z" fill="#FFAD54"/>
<path fill-rule="evenodd" clip-rule="evenodd" d="M112.097 216.193C127 216.193 139.193 204 139.193 189.097C139.193 174.193 127 162 112.097 162C97.1935 162 85 174.193 85 189.097C85 204 97.1935 216.193 112.097 216.193Z" fill="#FFAD54"/>
<path fill-rule="evenodd" clip-rule="evenodd" d="M197.097 216.193C212 216.193 224.193 204 224.193 189.097C224.193 174.193 212 162 197.097 162C182.193 162 170 174.193 170 189.097C170 204 182.193 216.193 197.097 216.193Z" fill="#FFAD54"/>
<path fill-rule="evenodd" clip-rule="evenodd" d="M282.097 216.193C297 216.193 309.193 204 309.193 189.097C309.193 174.193 297 162 282.097 162C267.193 162 255 174.193 255 189.097C255 204 267.193 216.193 282.097 216.193Z" fill="#FFAD54"/>
<path fill-rule="evenodd" clip-rule="evenodd" d="M27.0966 54.1933C41.9998 54.1933 54.1933 41.9998 54.1933 27.0966C54.1933 12.1935 41.9998 0 27.0966 0C12.1935 0 0 12.1935 0 27.0966C0 41.9998 12.1935 54.1933 27.0966 54.1933Z" fill="#FFAD54"/>
<path fill-rule="evenodd" clip-rule="evenodd" d="M112.097 54.1933C127 54.1933 139.193 41.9998 139.193 27.0966C139.193 12.1935 127 0 112.097 0C97.1935 0 85 12.1935 85 27.0966C85 41.9998 97.1935 54.1933 112.097 54.1933Z" fill="#FFAD54"/>
<path fill-rule="evenodd" clip-rule="evenodd" d="M197.097 54.1933C212 54.1933 224.193 41.9998 224.193 27.0966C224.193 12.1935 212 0 197.097 0C182.193 0 170 12.1935 170 27.0966C170 41.9998 182.193 54.1933 197.097 54.1933Z" fill="#FFAD54"/>
<path fill-rule="evenodd" clip-rule="evenodd" d="M282.097 54.1933C297 54.1933 309.193 41.9998 309.193 27.0966C309.193 12.1935 297 0 282.097 0C267.193 0 255 12.1935 255 27.0966C255 41.9998 267.193 54.1933 282.097 54.1933Z" fill="#FFAD54"/>
</svg>
