<svg width="212" height="182" viewBox="0 0 212 182" fill="none" xmlns="http://www.w3.org/2000/svg">
<path d="M77.0626 105.641C98.278 105.641 115.476 88.5516 115.476 67.4705C115.476 46.3894 98.278 29.2998 77.0626 29.2998C55.8473 29.2998 38.6488 46.3894 38.6488 67.4705C38.6488 88.5516 55.8473 105.641 77.0626 105.641Z" fill="#80CBC4"/>
<path d="M77.0627 124.727C51.4215 124.727 0.235107 137.514 0.235107 162.897V181.983H153.89V162.897C153.89 137.514 102.704 124.727 77.0627 124.727ZM151.586 32.7353L135.452 48.8624C143.519 60.1228 143.519 74.7231 135.452 85.9834L151.586 102.111C170.984 82.8344 170.984 53.7292 151.586 32.7353ZM183.373 0.671875L167.719 16.2264C194.321 45.0453 194.321 88.3691 167.719 118.715L183.373 134.269C220.826 97.1484 220.922 39.3197 183.373 0.671875Z" fill="#80CBC4"/>
</svg>
