<svg width="146" height="146" viewBox="0 0 146 146" fill="none" xmlns="http://www.w3.org/2000/svg">
<path d="M96.8422 59.1447L83.6504 72.3364C83.4792 72.5077 83.4792 72.7853 83.6504 72.9566C83.8217 73.1278 84.0993 73.1278 84.2706 72.9566L97.4623 59.7649C97.6336 59.5936 97.6336 59.316 97.4623 59.1447C97.2911 58.9735 97.0134 58.9735 96.8422 59.1447Z" fill="#EEEEEE"/>
<path d="M81.4554 59.1447L68.2637 72.3364C68.0924 72.5077 68.0924 72.7853 68.2637 72.9566C68.4349 73.1278 68.7126 73.1278 68.8839 72.9566L82.0756 59.7649C82.2468 59.5936 82.2468 59.316 82.0756 59.1447C81.9043 58.9735 81.6266 58.9735 81.4554 59.1447Z" fill="#EEEEEE"/>
<path d="M66.0609 59.1446L52.8692 72.3364C52.6979 72.5077 52.6979 72.7853 52.8692 72.9566C53.0404 73.1278 53.3181 73.1278 53.4893 72.9566L66.6811 59.7647C66.8523 59.5935 66.8523 59.3158 66.6811 59.1446C66.5098 58.9733 66.2322 58.9733 66.0609 59.1446Z" fill="#EEEEEE"/>
<path d="M50.6839 59.1485L37.4922 72.3403C37.321 72.5116 37.321 72.7892 37.4922 72.9605C37.6635 73.1317 37.9411 73.1317 38.1124 72.9605L51.3041 59.7687C51.4753 59.5974 51.4753 59.3198 51.3041 59.1485C51.1328 58.9773 50.8552 58.9773 50.6839 59.1485Z" fill="#EEEEEE"/>
<path d="M134.965 133.814C134.965 134.919 134.07 135.814 132.965 135.814H2C0.895426 135.814 0 134.919 0 133.814V2C0 0.895433 0.895431 0 2 0H132.965C134.07 0 134.965 0.895431 134.965 2V133.814ZM0.872822 132.936C0.872822 134.04 1.76825 134.936 2.87282 134.936H132.092C133.197 134.936 134.092 134.04 134.092 132.936V2.8783C134.092 1.77373 133.197 0.878297 132.092 0.878297H2.87283C1.76826 0.878297 0.872822 1.77373 0.872822 2.8783V132.936Z" fill="url(#paint0_linear)"/>
<path d="M137.437 20.8567C137.435 20.0587 137.751 19.2927 138.315 18.7282L140.877 16.1629C142.767 14.2715 146 15.6097 146 18.2831V143C146 144.657 144.657 146 143 146H18.2777C15.6049 146 14.2664 142.769 16.1564 140.879L18.3114 138.724C18.874 138.161 19.637 137.845 20.4326 137.845H134.75C136.41 137.845 137.755 136.497 137.75 134.837L137.437 20.8567Z" fill="#B2DFDB"/>
<defs>
<linearGradient id="paint0_linear" x1="71" y1="2" x2="71.5" y2="136" gradientUnits="userSpaceOnUse">
<stop stop-color="#80CBC4"/>
<stop offset="1" stop-color="#FBB03B"/>
</linearGradient>
</defs>
</svg>
