<svg width="61" height="43" viewBox="0 0 61 43" fill="none" xmlns="http://www.w3.org/2000/svg">
<path d="M54.9 0H6.1C2.745 0 0.0305 2.76429 0.0305 6.14286L0 36.8571C0 40.2357 2.745 43 6.1 43H54.9C58.255 43 61 40.2357 61 36.8571V6.14286C61 2.76429 58.255 0 54.9 0ZM27.45 9.21429H33.55V15.3571H27.45V9.21429ZM27.45 18.4286H33.55V24.5714H27.45V18.4286ZM18.3 9.21429H24.4V15.3571H18.3V9.21429ZM18.3 18.4286H24.4V24.5714H18.3V18.4286ZM15.25 24.5714H9.15V18.4286H15.25V24.5714ZM15.25 15.3571H9.15V9.21429H15.25V15.3571ZM42.7 36.8571H18.3V30.7143H42.7V36.8571ZM42.7 24.5714H36.6V18.4286H42.7V24.5714ZM42.7 15.3571H36.6V9.21429H42.7V15.3571ZM51.85 24.5714H45.75V18.4286H51.85V24.5714ZM51.85 15.3571H45.75V9.21429H51.85V15.3571Z" fill="#FFAD54"/>
</svg>
