<svg width="188" height="208" viewBox="0 0 188 208" fill="none" xmlns="http://www.w3.org/2000/svg">
<path d="M167.111 20.8H123.453C119.067 8.736 107.578 0 94 0C80.4222 0 68.9333 8.736 64.5467 20.8H20.8889C9.4 20.8 0 30.16 0 41.6V187.2C0 198.64 9.4 208 20.8889 208H167.111C178.6 208 188 198.64 188 187.2V41.6C188 30.16 178.6 20.8 167.111 20.8ZM94 20.8C99.7444 20.8 104.444 25.48 104.444 31.2C104.444 36.92 99.7444 41.6 94 41.6C88.2556 41.6 83.5556 36.92 83.5556 31.2C83.5556 25.48 88.2556 20.8 94 20.8ZM114.889 166.4H41.7778V145.6H114.889V166.4ZM146.222 124.8H41.7778V104H146.222V124.8ZM146.222 83.2H41.7778V62.4H146.222V83.2Z" fill="#FFAD54"/>
</svg>
