<svg width="167" height="184" viewBox="0 0 167 184" fill="none" xmlns="http://www.w3.org/2000/svg">
<path d="M139.181 129.866C132.16 129.866 125.879 132.62 121.075 136.934L55.2102 98.8403C55.6721 96.729 56.0416 94.6178 56.0416 92.4148C56.0416 90.2118 55.6721 88.1005 55.2102 85.9893L120.336 48.2625C125.325 52.8521 131.883 55.6977 139.181 55.6977C154.516 55.6977 166.894 43.3975 166.894 28.1599C166.894 12.9223 154.516 0.62207 139.181 0.62207C123.847 0.62207 111.468 12.9223 111.468 28.1599C111.468 30.3629 111.837 32.4741 112.299 34.5854L47.1734 72.3122C42.185 67.7226 35.6262 64.877 28.3284 64.877C12.9938 64.877 0.615234 77.1772 0.615234 92.4148C0.615234 107.652 12.9938 119.953 28.3284 119.953C35.6262 119.953 42.185 117.107 47.1734 112.517L112.946 150.703C112.484 152.631 112.207 154.65 112.207 156.67C112.207 171.448 124.308 183.473 139.181 183.473C154.054 183.473 166.155 171.448 166.155 156.67C166.155 141.891 154.054 129.866 139.181 129.866Z" fill="#FFAD54"/>
</svg>
