<svg width="44" height="44" viewBox="0 0 44 44" fill="none" xmlns="http://www.w3.org/2000/svg">
<path d="M21.978 0C9.834 0 0 9.856 0 22C0 34.144 9.834 44 21.978 44C34.144 44 44 34.144 44 22C44 9.856 34.144 0 21.978 0ZM37.224 13.2H30.734C30.03 10.45 29.018 7.81 27.698 5.368C31.746 6.754 35.112 9.57 37.224 13.2ZM22 4.488C23.826 7.128 25.256 10.054 26.202 13.2H17.798C18.744 10.054 20.174 7.128 22 4.488ZM4.972 26.4C4.62 24.992 4.4 23.518 4.4 22C4.4 20.482 4.62 19.008 4.972 17.6H12.408C12.232 19.052 12.1 20.504 12.1 22C12.1 23.496 12.232 24.948 12.408 26.4H4.972ZM6.776 30.8H13.266C13.97 33.55 14.982 36.19 16.302 38.632C12.254 37.246 8.888 34.452 6.776 30.8ZM13.266 13.2H6.776C8.888 9.548 12.254 6.754 16.302 5.368C14.982 7.81 13.97 10.45 13.266 13.2ZM22 39.512C20.174 36.872 18.744 33.946 17.798 30.8H26.202C25.256 33.946 23.826 36.872 22 39.512ZM27.148 26.4H16.852C16.654 24.948 16.5 23.496 16.5 22C16.5 20.504 16.654 19.03 16.852 17.6H27.148C27.346 19.03 27.5 20.504 27.5 22C27.5 23.496 27.346 24.948 27.148 26.4ZM27.698 38.632C29.018 36.19 30.03 33.55 30.734 30.8H37.224C35.112 34.43 31.746 37.246 27.698 38.632ZM31.592 26.4C31.768 24.948 31.9 23.496 31.9 22C31.9 20.504 31.768 19.052 31.592 17.6H39.028C39.38 19.008 39.6 20.482 39.6 22C39.6 23.518 39.38 24.992 39.028 26.4H31.592Z" fill="#FFAD54"/>
</svg>
